ffmpeg version 6.1.1-3ubuntu5 Copyright (c) 2000-2023 the FFmpeg developers
  built with gcc 13 (Ubuntu 13.2.0-23ubuntu3)
  configuration: --prefix=/usr --extra-version=3ubuntu5 --toolchain=hardened --libdir=/usr/lib/x86_64-linux-gnu --incdir=/usr/include/x86_64-linux-gnu --arch=amd64 --enable-gpl --disable-stripping --disable-omx --enable-gnutls --enable-libaom --enable-libass --enable-libbs2b --enable-libcaca --enable-libcdio --enable-libcodec2 --enable-libdav1d --enable-libflite --enable-libfontconfig --enable-libfreetype --enable-libfribidi --enable-libglslang --enable-libgme --enable-libgsm --enable-libharfbuzz --enable-libmp3lame --enable-libmysofa --enable-libopenjpeg --enable-libopenmpt --enable-libopus --enable-librubberband --enable-libshine --enable-libsnappy --enable-libsoxr --enable-libspeex --enable-libtheora --enable-libtwolame --enable-libvidstab --enable-libvorbis --enable-libvpx --enable-libwebp --enable-libx265 --enable-libxml2 --enable-libxvid --enable-libzimg --enable-openal --enable-opencl --enable-opengl --disable-sndio --enable-libvpl --disable-libmfx --enable-libdc1394 --enable-libdrm --enable-libiec61883 --enable-chromaprint --enable-frei0r --enable-ladspa --enable-libbluray --enable-libjack --enable-libpulse --enable-librabbitmq --enable-librist --enable-libsrt --enable-libssh --enable-libsvtav1 --enable-libx264 --enable-libzmq --enable-libzvbi --enable-lv2 --enable-sdl2 --enable-libplacebo --enable-librav1e --enable-pocketsphinx --enable-librsvg --enable-libjxl --enable-shared
  libavutil      58. 29.100 / 58. 29.100
  libavcodec     60. 31.102 / 60. 31.102
  libavformat    60. 16.100 / 60. 16.100
  libavdevice    60.  3.100 / 60.  3.100
  libavfilter     9. 12.100 /  9. 12.100
  libswscale      7.  5.100 /  7.  5.100
  libswresample   4. 12.100 /  4. 12.100
  libpostproc    57.  3.100 / 57.  3.100
Input #0, rtsp, from 'rtsp://admin:1234Qwer@192.168.21.10:554/Streaming/Channels/101':
  Metadata:
    title           : Media Presentation
  Duration: N/A, start: 1744216089.705667, bitrate: N/A
  Stream #0:0: Video: hevc (Main), yuvj420p(pc, bt709), 1920x1080, 90k tbr, 90k tbn
Stream mapping:
  Stream #0:0 -> #0:0 (hevc (native) -> h264 (libx264))
Press [q] to stop, [?] for help
[libx264 @ 0x62f9e36ee6c0] MB rate (734400000) > level limit (16711680)
[libx264 @ 0x62f9e36ee6c0] using cpu capabilities: MMX2 SSE2Fast SSSE3 SSE4.2 AVX FMA3 BMI2 AVX2
[libx264 @ 0x62f9e36ee6c0] profile High, level 6.2, 4:2:0, 8-bit
[libx264 @ 0x62f9e36ee6c0] 264 - core 164 r3108 31e19f9 - H.264/MPEG-4 AVC codec - Copyleft 2003-2023 - http://www.videolan.org/x264.html - options: cabac=1 ref=2 deblock=1:0:0 analyse=0x3:0x113 me=hex subme=6 psy=1 psy_rd=1.00:0.00 mixed_ref=1 me_range=16 chroma_me=1 trellis=1 8x8dct=1 cqm=0 deadzone=21,11 fast_pskip=1 chroma_qp_offset=-2 threads=18 lookahead_threads=3 sliced_threads=0 nr=0 decimate=1 interlaced=0 bluray_compat=0 constrained_intra=0 bframes=3 b_pyramid=2 b_adapt=1 b_bias=0 direct=1 weightb=1 open_gop=0 weightp=1 keyint=250 keyint_min=25 scenecut=40 intra_refresh=0 rc_lookahead=30 rc=crf mbtree=1 crf=23.0 qcomp=0.60 qpmin=0 qpmax=69 qpstep=4 ip_ratio=1.40 aq=1:1.00
Output #0, matroska, to 'data/videos/stream3_1744216089.mkv':
  Metadata:
    title           : Media Presentation
    encoder         : Lavf60.16.100
  Stream #0:0: Video: h264 (H264 / 0x34363248), yuvj420p(pc, bt709, progressive), 1920x1080, q=2-31, 90k fps, 1k tbn
    Metadata:
      encoder         : Lavc60.31.102 libx264
    Side data:
      cpb: bitrate max/min/avg: 0/0/0 buffer size: 0 vbv_delay: N/A
frame=    0 fps=0.0 q=0.0 size=       0kB time=N/A bitrate=N/A speed=N/A    frame=    0 fps=0.0 q=0.0 size=       0kB time=N/A bitrate=N/A speed=N/A    frame=    0 fps=0.0 q=0.0 size=       0kB time=N/A bitrate=N/A speed=N/A    frame=    0 fps=0.0 q=0.0 size=       0kB time=N/A bitrate=N/A speed=N/A    frame=   12 fps=5.6 q=29.0 size=       1kB time=00:00:00.35 bitrate=  14.3kbits/s speed=0.167x    frame=   25 fps=9.4 q=27.0 size=       1kB time=00:00:00.93 bitrate=   5.5kbits/s speed=0.351x    frame=   38 fps= 12 q=28.0 size=       1kB time=00:00:01.37 bitrate=   3.7kbits/s speed=0.432x    frame=   51 fps= 14 q=33.0 size=       1kB time=00:00:01.90 bitrate=   2.7kbits/s speed=0.513x    frame=   64 fps= 15 q=29.0 size=       1kB time=00:00:02.41 bitrate=   2.1kbits/s speed=0.57x    frame=   77 fps= 16 q=28.0 size=       1kB time=00:00:02.93 bitrate=   1.7kbits/s speed=0.617x    frame=   90 fps= 17 q=30.0 size=       1kB time=00:00:03.46 bitrate=   1.5kbits/s speed=0.656x    frame=  103 fps= 18 q=28.0 size=       1kB time=00:00:04.00 bitrate=   1.3kbits/s speed=0.69x    frame=  116 fps= 18 q=29.0 size=       1kB time=00:00:04.51 bitrate=   1.1kbits/s speed=0.717x    frame=  128 fps= 19 q=29.0 size=    2560kB time=00:00:05.01 bitrate=4180.5kbits/s speed=0.736x    frame=  141 fps= 19 q=32.0 size=    2560kB time=00:00:05.51 bitrate=3801.8kbits/s speed=0.753x    frame=  154 fps= 20 q=28.0 size=    2560kB time=00:00:06.03 bitrate=3476.7kbits/s speed=0.769x    frame=  167 fps= 20 q=29.0 size=    2560kB time=00:00:06.54 bitrate=3203.6kbits/s speed=0.782x    frame=  180 fps= 20 q=29.0 size=    2560kB time=00:00:07.06 bitrate=2967.7kbits/s speed=0.795x    frame=  193 fps= 21 q=29.0 size=    2560kB time=00:00:07.62 bitrate=2751.6kbits/s speed=0.812x    frame=  206 fps= 21 q=29.0 size=    2560kB time=00:00:08.12 bitrate=2580.6kbits/s speed=0.82x    frame=  218 fps= 21 q=30.0 size=    2560kB time=00:00:08.60 bitrate=2436.7kbits/s speed=0.827x    frame=  231 fps= 21 q=28.0 size=    2560kB time=00:00:09.12 bitrate=2297.9kbits/s speed=0.835x    frame=  244 fps= 21 q=28.0 size=    2560kB time=00:00:09.64 bitrate=2173.9kbits/s speed=0.842x    frame=  257 fps= 21 q=28.0 size=    4864kB time=00:00:10.17 bitrate=3915.6kbits/s speed=0.85x    frame=  270 fps= 22 q=28.0 size=    4864kB time=00:00:10.67 bitrate=3732.1kbits/s speed=0.854x    frame=  283 fps= 22 q=28.0 size=    4864kB time=00:00:11.22 bitrate=3551.3kbits/s speed=0.862x    frame=  296 fps= 22 q=28.0 size=    4864kB time=00:00:11.73 bitrate=3394.9kbits/s speed=0.867x    frame=  310 fps= 22 q=27.0 size=    4864kB time=00:00:12.29 bitrate=3240.5kbits/s speed=0.873x    frame=  323 fps= 22 q=30.0 size=    4864kB time=00:00:12.81 bitrate=3108.2kbits/s speed=0.878x    frame=  335 fps= 22 q=28.0 size=    4864kB time=00:00:13.30 bitrate=2994.5kbits/s speed=0.881x    frame=  348 fps= 22 q=29.0 size=    4864kB time=00:00:13.81 bitrate=2884.0kbits/s speed=0.884x    frame=  361 fps= 22 q=29.0 size=    4864kB time=00:00:14.34 bitrate=2777.3kbits/s speed=0.889x    frame=  374 fps= 22 q=28.0 size=    4864kB time=00:00:14.84 bitrate=2683.9kbits/s speed=0.89x    frame=  387 fps= 23 q=28.0 size=    7424kB time=00:00:15.36 bitrate=3957.6kbits/s speed=0.894x    frame=  400 fps= 23 q=28.0 size=    7424kB time=00:00:15.90 bitrate=3823.4kbits/s speed=0.899x    frame=  413 fps= 23 q=30.0 size=    7424kB time=00:00:16.43 bitrate=3701.2kbits/s speed=0.902x    frame=  425 fps= 23 q=29.0 size=    7424kB time=00:00:16.90 bitrate=3597.2kbits/s speed=0.903x    frame=  438 fps= 23 q=28.0 size=    7424kB time=00:00:17.42 bitrate=3490.9kbits/s speed=0.906x    frame=  451 fps= 23 q=28.0 size=    7424kB time=00:00:17.93 bitrate=3390.7kbits/s speed=0.908x    frame=  464 fps= 23 q=29.0 size=    7424kB time=00:00:18.46 bitrate=3293.4kbits/s speed=0.91x    frame=  477 fps= 23 q=28.0 size=    7424kB time=00:00:18.98 bitrate=3203.2kbits/s speed=0.912x    frame=  491 fps= 23 q=27.0 size=    7424kB time=00:00:19.56 bitrate=3108.3kbits/s speed=0.917x    frame=  505 fps= 23 q=29.0 size=    9984kB time=00:00:20.06 bitrate=4075.4kbits/s speed=0.918x    frame=  517 fps= 23 q=29.0 size=    9984kB time=00:00:20.60 bitrate=3968.9kbits/s speed=0.92x    frame=  531 fps= 23 q=28.0 size=    9984kB time=00:00:21.12 bitrate=3871.2kbits/s speed=0.922x    frame=  543 fps= 23 q=29.0 size=    9984kB time=00:00:21.66 bitrate=3775.8kbits/s speed=0.924x    frame=  557 fps= 23 q=29.0 size=    9984kB time=00:00:22.14 bitrate=3693.0kbits/s speed=0.924x    frame=  569 fps= 23 q=28.0 size=    9984kB time=00:00:22.66 bitrate=3608.3kbits/s speed=0.925x    frame=  582 fps= 23 q=29.0 size=    9984kB time=00:00:23.18 bitrate=3527.3kbits/s speed=0.927x    frame=  596 fps= 23 q=29.0 size=    9984kB time=00:00:23.72 bitrate=3446.7kbits/s speed=0.93x    frame=  607 fps= 23 q=29.0 size=    9984kB time=00:00:24.20 bitrate=3378.8kbits/s speed=0.93x    frame=  621 fps= 23 q=32.0 size=    9984kB time=00:00:24.76 bitrate=3302.4kbits/s speed=0.932x    frame=  634 fps= 23 q=28.0 size=   12544kB time=00:00:25.28 bitrate=4064.5kbits/s speed=0.933x    frame=  648 fps= 23 q=28.0 size=   12544kB time=00:00:25.82 bitrate=3978.7kbits/s speed=0.935x    frame=  660 fps= 23 q=28.0 size=   12544kB time=00:00:26.31 bitrate=3904.8kbits/s speed=0.936x    frame=  673 fps= 23 q=27.0 size=   12544kB time=00:00:26.86 bitrate=3824.4kbits/s speed=0.938x    frame=  686 fps= 24 q=28.0 size=   12544kB time=00:00:27.36 bitrate=3754.8kbits/s speed=0.938x    frame=  699 fps= 24 q=30.0 size=   12544kB time=00:00:27.90 bitrate=3682.0kbits/s speed=0.94x    frame=  712 fps= 24 q=27.0 size=   12544kB time=00:00:28.42 bitrate=3614.9kbits/s speed=0.941x    frame=  726 fps= 24 q=30.0 size=   12544kB time=00:00:28.94 bitrate=3550.0kbits/s speed=0.942x    frame=  739 fps= 24 q=30.0 size=   12544kB time=00:00:29.45 bitrate=3488.3kbits/s speed=0.942x    frame=  751 fps= 24 q=29.0 size=   12544kB time=00:00:29.98 bitrate=3426.8kbits/s speed=0.943x    frame=  764 fps= 24 q=29.0 size=   14848kB time=00:00:30.50 bitrate=3986.7kbits/s speed=0.945x    frame=  776 fps= 24 q=28.0 size=   14848kB time=00:00:30.98 bitrate=3925.3kbits/s speed=0.945x    frame=  790 fps= 24 q=28.0 size=   14848kB time=00:00:31.50 bitrate=3860.4kbits/s speed=0.946x    frame=  802 fps= 24 q=30.0 size=   14848kB time=00:00:32.02 bitrate=3798.0kbits/s speed=0.946x    frame=  816 fps= 24 q=29.0 size=   14848kB time=00:00:32.54 bitrate=3737.1kbits/s speed=0.947x    frame=  828 fps= 24 q=30.0 size=   14848kB time=00:00:33.07 bitrate=3677.2kbits/s speed=0.948x    frame=  841 fps= 24 q=28.0 size=   14848kB time=00:00:33.60 bitrate=3619.4kbits/s speed=0.95x    frame=  854 fps= 24 q=30.0 size=   14848kB time=00:00:34.12 bitrate=3564.3kbits/s speed=0.95x    frame=  867 fps= 24 q=28.0 size=   14848kB time=00:00:34.64 bitrate=3510.7kbits/s speed=0.951x    frame=  880 fps= 24 q=28.0 size=   17664kB time=00:00:35.15 bitrate=4115.9kbits/s speed=0.951x    frame=  893 fps= 24 q=28.0 size=   17664kB time=00:00:35.68 bitrate=4055.3kbits/s speed=0.953x    frame=  905 fps= 24 q=28.0 size=   17664kB time=00:00:36.15 bitrate=4002.0kbits/s speed=0.952x    frame=  918 fps= 24 q=28.0 size=   17664kB time=00:00:36.67 bitrate=3945.9kbits/s speed=0.953x    frame=  931 fps= 24 q=28.0 size=   17664kB time=00:00:37.18 bitrate=3891.3kbits/s speed=0.953x    frame=  944 fps= 24 q=31.0 size=   17664kB time=00:00:37.71 bitrate=3836.6kbits/s speed=0.954x    frame=  957 fps= 24 q=28.0 size=   17664kB time=00:00:38.22 bitrate=3785.4kbits/s speed=0.955x    frame=  970 fps= 24 q=28.0 size=   17664kB time=00:00:38.76 bitrate=3732.7kbits/s speed=0.956x    frame=  982 fps= 24 q=28.0 size=   17664kB time=00:00:39.24 bitrate=3686.9kbits/s speed=0.956x    frame=  995 fps= 24 q=28.0 size=   17664kB time=00:00:39.76 bitrate=3638.8kbits/s speed=0.957x    frame= 1008 fps= 24 q=28.0 size=   20224kB time=00:00:40.28 bitrate=4112.4kbits/s speed=0.957x    frame= 1021 fps= 24 q=29.0 size=   20224kB time=00:00:40.81 bitrate=4059.0kbits/s speed=0.958x    frame= 1034 fps= 24 q=29.0 size=   20224kB time=00:00:41.31 bitrate=4009.8kbits/s speed=0.958x    frame= 1047 fps= 24 q=31.0 size=   20224kB time=00:00:41.84 bitrate=3959.0kbits/s speed=0.958x    frame= 1061 fps= 24 q=29.0 size=   20224kB time=00:00:42.40 bitrate=3906.7kbits/s speed=0.959x    frame= 1074 fps= 24 q=29.0 size=   20224kB time=00:00:42.92 bitrate=3859.4kbits/s speed=0.96x    frame= 1087 fps= 24 q=28.0 size=   20224kB time=00:00:43.45 bitrate=3812.4kbits/s speed=0.96x    frame= 1100 fps= 24 q=28.0 size=   20224kB time=00:00:43.97 bitrate=3767.3kbits/s speed=0.96x    frame= 1113 fps= 24 q=28.0 size=   20224kB time=00:00:44.51 bitrate=3721.9kbits/s speed=0.961x    frame= 1126 fps= 24 q=29.0 size=   22784kB time=00:00:45.00 bitrate=4147.1kbits/s speed=0.961x    frame= 1139 fps= 24 q=28.0 size=   22784kB time=00:00:45.52 bitrate=4099.7kbits/s speed=0.962x    frame= 1152 fps= 24 q=29.0 size=   22784kB time=00:00:46.05 bitrate=4052.5kbits/s speed=0.962x    frame= 1165 fps= 24 q=27.0 size=   22784kB time=00:00:46.57 bitrate=4007.2kbits/s speed=0.962x    frame= 1178 fps= 24 q=29.0 size=   22784kB time=00:00:47.09 bitrate=3962.8kbits/s speed=0.963x    frame= 1192 fps= 24 q=30.0 size=   22784kB time=00:00:47.67 bitrate=3914.8kbits/s speed=0.964x    frame= 1205 fps= 24 q=28.0 size=   22784kB time=00:00:48.18 bitrate=3873.7kbits/s speed=0.964x    frame= 1218 fps= 24 q=28.0 size=   22784kB time=00:00:48.71 bitrate=3831.3kbits/s speed=0.964x    frame= 1231 fps= 24 q=28.0 size=   22784kB time=00:00:49.23 bitrate=3790.8kbits/s speed=0.965x    frame= 1244 fps= 24 q=29.0 size=   22784kB time=00:00:49.76 bitrate=3750.4kbits/s speed=0.965x    frame= 1257 fps= 24 q=29.0 size=   25088kB time=00:00:50.25 bitrate=4089.4kbits/s speed=0.965x    frame= 1270 fps= 24 q=28.0 size=   25088kB time=00:00:50.79 bitrate=4045.8kbits/s speed=0.966x    frame= 1283 fps= 24 q=28.0 size=   25088kB time=00:00:51.32 bitrate=4004.5kbits/s speed=0.966x    frame= 1296 fps= 24 q=29.0 size=   25088kB time=00:00:51.83 bitrate=3964.7kbits/s speed=0.966x    frame= 1309 fps= 24 q=28.0 size=   25088kB time=00:00:52.35 bitrate=3925.3kbits/s speed=0.967x    frame= 1322 fps= 24 q=30.0 size=   25088kB time=00:00:52.87 bitrate=3886.8kbits/s speed=0.967x    frame= 1335 fps= 24 q=27.0 size=   25088kB time=00:00:53.38 bitrate=3849.6kbits/s speed=0.967x    frame= 1348 fps= 24 q=28.0 size=   25088kB time=00:00:53.93 bitrate=3810.4kbits/s speed=0.968x    frame= 1361 fps= 24 q=28.0 size=   25088kB time=00:00:54.42 bitrate=3775.9kbits/s speed=0.968x    frame= 1374 fps= 24 q=29.0 size=   27648kB time=00:00:54.96 bitrate=4120.5kbits/s speed=0.968x    frame= 1387 fps= 24 q=28.0 size=   27648kB time=00:00:55.48 bitrate=4082.0kbits/s speed=0.968x    frame= 1400 fps= 24 q=28.0 size=   27648kB time=00:00:55.99 bitrate=4044.8kbits/s speed=0.968x    frame= 1413 fps= 24 q=30.0 size=   27648kB time=00:00:56.52 bitrate=4006.9kbits/s speed=0.969x    frame= 1426 fps= 24 q=29.0 size=   27648kB time=00:00:57.03 bitrate=3971.1kbits/s speed=0.969x    frame= 1438 fps= 24 q=28.0 size=   27648kB time=00:00:57.53 bitrate=3936.6kbits/s speed=0.969x    frame= 1451 fps= 24 q=29.0 size=   27648kB time=00:00:58.05 bitrate=3901.3kbits/s speed=0.97x    frame= 1464 fps= 24 q=28.0 size=   27648kB time=00:00:58.57 bitrate=3866.7kbits/s speed=0.97x    frame= 1477 fps= 24 q=28.0 size=   27648kB time=00:00:59.10 bitrate=3832.1kbits/s speed=0.97x    frame= 1490 fps= 24 q=28.0 size=   27648kB time=00:00:59.61 bitrate=3799.3kbits/s speed=0.97x    frame= 1504 fps= 24 q=29.0 size=   30208kB time=00:01:00.19 bitrate=4111.1kbits/s speed=0.971x    frame= 1517 fps= 24 q=27.0 size=   30208kB time=00:01:00.71 bitrate=4075.9kbits/s speed=0.971x    frame= 1530 fps= 24 q=28.0 size=   30208kB time=00:01:01.21 bitrate=4042.4kbits/s speed=0.971x    frame= 1543 fps= 24 q=28.0 size=   30208kB time=00:01:01.74 bitrate=4007.5kbits/s speed=0.972x    frame= 1556 fps= 24 q=30.0 size=   30208kB time=00:01:02.27 bitrate=3973.9kbits/s speed=0.972x    frame= 1569 fps= 24 q=29.0 size=   30208kB time=00:01:02.77 bitrate=3942.2kbits/s speed=0.972x    frame= 1582 fps= 24 q=29.0 size=   30208kB time=00:01:03.31 bitrate=3908.5kbits/s speed=0.972x    frame= 1595 fps= 24 q=28.0 size=   30208kB time=00:01:03.81 bitrate=3877.9kbits/s speed=0.972x    frame= 1608 fps= 24 q=28.0 size=   30208kB time=00:01:04.35 bitrate=3845.4kbits/s speed=0.973x    frame= 1621 fps= 24 q=31.0 size=   30208kB time=00:01:04.87 bitrate=3814.6kbits/s speed=0.973x    frame= 1634 fps= 24 q=29.0 size=   32768kB time=00:01:05.38 bitrate=4105.3kbits/s speed=0.973x    frame= 1647 fps= 24 q=28.0 size=   32768kB time=00:01:05.93 bitrate=4071.4kbits/s speed=0.973x    frame= 1661 fps= 24 q=29.0 size=   32768kB time=00:01:06.47 bitrate=4038.3kbits/s speed=0.973x    frame= 1676 fps= 24 q=28.0 size=   32768kB time=00:01:07.06 bitrate=4002.9kbits/s speed=0.974x    frame= 1689 fps= 24 q=28.0 size=   32768kB time=00:01:07.56 bitrate=3973.2kbits/s speed=0.974x    frame= 1701 fps= 24 q=31.0 size=   32768kB time=00:01:08.08 bitrate=3942.9kbits/s speed=0.974x    frame= 1714 fps= 24 q=29.0 size=   32768kB time=00:01:08.60 bitrate=3913.0kbits/s speed=0.974x    frame= 1727 fps= 24 q=28.0 size=   32768kB time=00:01:09.13 bitrate=3882.9kbits/s speed=0.975x    frame= 1740 fps= 24 q=28.0 size=   32768kB time=00:01:09.62 bitrate=3855.2kbits/s speed=0.975x    frame= 1753 fps= 24 q=28.0 size=   35328kB time=00:01:10.17 bitrate=4124.2kbits/s speed=0.975x    frame= 1766 fps= 24 q=28.0 size=   35328kB time=00:01:10.68 bitrate=4094.0kbits/s speed=0.975x    frame= 1779 fps= 24 q=28.0 size=   35328kB time=00:01:11.20 bitrate=4064.2kbits/s speed=0.975x    frame= 1792 fps= 24 q=28.0 size=   35328kB time=00:01:11.72 bitrate=4034.7kbits/s speed=0.975x    frame= 1805 fps= 24 q=28.0 size=   35328kB time=00:01:12.26 bitrate=4004.6kbits/s speed=0.976x    frame= 1818 fps= 24 q=28.0 size=   35328kB time=00:01:12.76 bitrate=3977.1kbits/s speed=0.976x    frame= 1831 fps= 24 q=28.0 size=   35328kB time=00:01:13.28 bitrate=3948.9kbits/s speed=0.976x    frame= 1844 fps= 24 q=28.0 size=   35328kB time=00:01:13.81 bitrate=3920.5kbits/s speed=0.976x    frame= 1857 fps= 24 q=29.0 size=   35328kB time=00:01:14.33 bitrate=3893.1kbits/s speed=0.976x    frame= 1870 fps= 24 q=28.0 size=   35328kB time=00:01:14.85 bitrate=3866.1kbits/s speed=0.977x    frame= 1883 fps= 24 q=28.0 size=   38144kB time=00:01:15.37 bitrate=4145.7kbits/s speed=0.976x    frame= 1897 fps= 24 q=28.0 size=   38144kB time=00:01:15.89 bitrate=4117.0kbits/s speed=0.977x    frame= 1910 fps= 24 q=27.0 size=   38144kB time=00:01:16.41 bitrate=4089.1kbits/s speed=0.977x    frame= 1922 fps= 24 q=29.0 size=   38144kB time=00:01:16.93 bitrate=4061.5kbits/s speed=0.977x    frame= 1935 fps= 24 q=28.0 size=   38144kB time=00:01:17.47 bitrate=4033.2kbits/s speed=0.977x    frame= 1948 fps= 24 q=30.0 size=   38144kB time=00:01:17.99 bitrate=4006.3kbits/s speed=0.977x    frame= 1961 fps= 24 q=28.0 size=   38144kB time=00:01:18.51 bitrate=3979.8kbits/s speed=0.978x    frame= 1975 fps= 24 q=29.0 size=   38144kB time=00:01:19.03 bitrate=3953.5kbits/s speed=0.978x    frame= 1987 fps= 24 q=28.0 size=   38144kB time=00:01:19.56 bitrate=3927.3kbits/s speed=0.978x    frame= 2001 fps= 24 q=29.0 size=   38144kB time=00:01:20.11 bitrate=3900.4kbits/s speed=0.978x    frame= 2014 fps= 24 q=29.0 size=   40448kB time=00:01:20.63 bitrate=4109.1kbits/s speed=0.978x    frame= 2028 fps= 24 q=28.0 size=   40448kB time=00:01:21.15 bitrate=4082.9kbits/s speed=0.978x    frame= 2040 fps= 24 q=28.0 size=   40448kB time=00:01:21.67 bitrate=4056.9kbits/s speed=0.978x    frame= 2053 fps= 24 q=27.0 size=   40448kB time=00:01:22.21 bitrate=4030.4kbits/s speed=0.979x    frame= 2066 fps= 24 q=28.0 size=   40448kB time=00:01:22.71 bitrate=4006.0kbits/s speed=0.979x    frame= 2079 fps= 24 q=27.0 size=   40448kB time=00:01:23.22 bitrate=3981.4kbits/s speed=0.979x    frame= 2092 fps= 24 q=29.0 size=   40448kB time=00:01:23.76 bitrate=3955.8kbits/s speed=0.979x    frame= 2106 fps= 24 q=28.0 size=   40448kB time=00:01:24.28 bitrate=3931.4kbits/s speed=0.979x    frame= 2118 fps= 24 q=29.0 size=   40448kB time=00:01:24.79 bitrate=3907.6kbits/s speed=0.979x    frame= 2132 fps= 24 q=28.0 size=   43264kB time=00:01:25.36 bitrate=4152.0kbits/s speed=0.979x    frame= 2146 fps= 24 q=28.0 size=   43264kB time=00:01:25.88 bitrate=4126.8kbits/s speed=0.979x    frame= 2158 fps= 24 q=28.0 size=   43264kB time=00:01:26.39 bitrate=4102.4kbits/s speed=0.98x    frame= 2171 fps= 24 q=28.0 size=   43264kB time=00:01:26.93 bitrate=4076.9kbits/s speed=0.98x    frame= 2184 fps= 24 q=28.0 size=   43264kB time=00:01:27.45 bitrate=4052.6kbits/s speed=0.98x    frame= 2198 fps= 24 q=29.0 size=   43264kB time=00:01:27.96 bitrate=4029.0kbits/s speed=0.98x    frame= 2210 fps= 24 q=30.0 size=   43264kB time=00:01:28.48 bitrate=4005.6kbits/s speed=0.98x    frame= 2223 fps= 24 q=31.0 size=   43264kB time=00:01:29.00 bitrate=3981.9kbits/s speed=0.98x    frame= 2236 fps= 24 q=28.0 size=   43264kB time=00:01:29.53 bitrate=3958.2kbits/s speed=0.98x    frame= 2250 fps= 24 q=28.0 size=   43264kB time=00:01:30.10 bitrate=3933.6kbits/s speed=0.981x    frame= 2263 fps= 24 q=31.0 size=   45824kB time=00:01:30.62 bitrate=4142.4kbits/s speed=0.98x    frame= 2277 fps= 24 q=28.0 size=   45824kB time=00:01:31.17 bitrate=4117.1kbits/s speed=0.981x    frame= 2290 fps= 24 q=28.0 size=   45824kB time=00:01:31.69 bitrate=4093.7kbits/s speed=0.981x    frame= 2303 fps= 24 q=27.0 size=   45824kB time=00:01:32.21 bitrate=4070.7kbits/s speed=0.981x    frame= 2316 fps= 24 q=28.0 size=   45824kB time=00:01:32.72 bitrate=4048.3kbits/s speed=0.981x    frame= 2328 fps= 24 q=29.0 size=   45824kB time=00:01:33.21 bitrate=4027.3kbits/s speed=0.981x    frame= 2341 fps= 24 q=29.0 size=   45824kB time=00:01:33.74 bitrate=4004.3kbits/s speed=0.981x    frame= 2354 fps= 25 q=29.0 size=   45824kB time=00:01:34.26 bitrate=3982.2kbits/s speed=0.981x    frame= 2367 fps= 25 q=28.0 size=   45824kB time=00:01:34.79 bitrate=3959.9kbits/s speed=0.981x    frame= 2380 fps= 25 q=29.0 size=   48640kB time=00:01:35.29 bitrate=4181.2kbits/s speed=0.981x    frame= 2393 fps= 25 q=29.0 size=   48640kB time=00:01:35.84 bitrate=4157.5kbits/s speed=0.982x    frame= 2406 fps= 25 q=28.0 size=   48640kB time=00:01:36.35 bitrate=4135.2kbits/s speed=0.982x    frame= 2419 fps= 25 q=30.0 size=   48640kB time=00:01:36.87 bitrate=4113.0kbits/s speed=0.982x    frame= 2432 fps= 25 q=28.0 size=   48640kB time=00:01:37.39 bitrate=4091.1kbits/s speed=0.982x    frame= 2445 fps= 25 q=28.0 size=   48640kB time=00:01:37.92 bitrate=4068.9kbits/s speed=0.982x    frame= 2458 fps= 25 q=28.0 size=   48640kB time=00:01:38.42 bitrate=4048.3kbits/s speed=0.982x    frame= 2471 fps= 25 q=29.0 size=   48640kB time=00:01:38.95 bitrate=4026.7kbits/s speed=0.982x    frame= 2484 fps= 25 q=31.0 size=   48640kB time=00:01:39.48 bitrate=4005.1kbits/s speed=0.982x    frame= 2497 fps= 25 q=29.0 size=   48640kB time=00:01:40.00 bitrate=3984.3kbits/s speed=0.982x    frame= 2510 fps= 25 q=28.0 size=   50944kB time=00:01:40.52 bitrate=4151.5kbits/s speed=0.982x    frame= 2523 fps= 25 q=30.0 size=   50944kB time=00:01:41.05 bitrate=4129.8kbits/s speed=0.983x    frame= 2536 fps= 25 q=28.0 size=   50944kB time=00:01:41.56 bitrate=4109.1kbits/s speed=0.983x    frame= 2550 fps= 25 q=27.0 size=   50944kB time=00:01:42.08 bitrate=4088.1kbits/s speed=0.983x    frame= 2562 fps= 25 q=29.0 size=   50944kB time=00:01:42.60 bitrate=4067.4kbits/s speed=0.983x    frame= 2576 fps= 25 q=30.0 size=   50944kB time=00:01:43.14 bitrate=4046.1kbits/s speed=0.983x    frame= 2588 fps= 25 q=27.0 size=   50944kB time=00:01:43.66 bitrate=4025.9kbits/s speed=0.983x    frame= 2601 fps= 25 q=28.0 size=   50944kB time=00:01:44.17 bitrate=4006.1kbits/s speed=0.983x    frame= 2614 fps= 25 q=30.0 size=   50944kB time=00:01:44.69 bitrate=3986.2kbits/s speed=0.983x    frame= 2628 fps= 25 q=28.0 size=   53760kB time=00:01:45.22 bitrate=4185.4kbits/s speed=0.983x    frame= 2640 fps= 25 q=28.0 size=   53760kB time=00:01:45.74 bitrate=4164.9kbits/s speed=0.983x    frame= 2653 fps= 25 q=28.0 size=   53760kB time=00:01:46.26 bitrate=4144.4kbits/s speed=0.984x    frame= 2665 fps= 25 q=28.0 size=   53760kB time=00:01:46.74 bitrate=4125.9kbits/s speed=0.983x    frame= 2678 fps= 25 q=29.0 size=   53760kB time=00:01:47.26 bitrate=4105.9kbits/s speed=0.983x    frame= 2691 fps= 25 q=29.0 size=   53760kB time=00:01:47.77 bitrate=4086.5kbits/s speed=0.983x    frame= 2704 fps= 25 q=28.0 size=   53760kB time=00:01:48.32 bitrate=4065.7kbits/s speed=0.984x    frame= 2717 fps= 25 q=28.0 size=   53760kB time=00:01:48.81 bitrate=4047.4kbits/s speed=0.984x    frame= 2730 fps= 25 q=28.0 size=   53760kB time=00:01:49.35 bitrate=4027.4kbits/s speed=0.984x    frame= 2742 fps= 25 q=29.0 size=   53760kB time=00:01:49.82 bitrate=4009.9kbits/s speed=0.984x    frame= 2755 fps= 25 q=28.0 size=   56064kB time=00:01:50.35 bitrate=4161.6kbits/s speed=0.984x    frame= 2768 fps= 25 q=28.0 size=   56064kB time=00:01:50.87 bitrate=4142.1kbits/s speed=0.984x    frame= 2781 fps= 25 q=27.0 size=   56064kB time=00:01:51.37 bitrate=4123.6kbits/s speed=0.984x    frame= 2794 fps= 25 q=28.0 size=   56064kB time=00:01:51.92 bitrate=4103.6kbits/s speed=0.984x    frame= 2807 fps= 25 q=30.0 size=   56064kB time=00:01:52.42 bitrate=4085.0kbits/s speed=0.984x    frame= 2820 fps= 25 q=29.0 size=   56064kB time=00:01:52.96 bitrate=4065.5kbits/s speed=0.984x    frame= 2833 fps= 25 q=29.0 size=   56064kB time=00:01:53.47 bitrate=4047.5kbits/s speed=0.984x    frame= 2846 fps= 25 q=28.0 size=   56064kB time=00:01:53.99 bitrate=4028.8kbits/s speed=0.984x    frame= 2859 fps= 25 q=28.0 size=   56064kB time=00:01:54.53 bitrate=4009.8kbits/s speed=0.985x    frame= 2872 fps= 25 q=29.0 size=   56064kB time=00:01:55.03 bitrate=3992.4kbits/s speed=0.985x    frame= 2885 fps= 25 q=28.0 size=   58880kB time=00:01:55.55 bitrate=4174.1kbits/s speed=0.985x    frame= 2897 fps= 25 q=29.0 size=   58880kB time=00:01:56.03 bitrate=4156.8kbits/s speed=0.985x    frame= 2910 fps= 25 q=28.0 size=   58880kB time=00:01:56.57 bitrate=4137.6kbits/s speed=0.985x    frame= 2923 fps= 25 q=28.0 size=   58880kB time=00:01:57.09 bitrate=4119.2kbits/s speed=0.985x    frame= 2936 fps= 25 q=29.0 size=   58880kB time=00:01:57.59 bitrate=4101.7kbits/s speed=0.985x    frame= 2949 fps= 25 q=28.0 size=   58880kB time=00:01:58.11 bitrate=4083.7kbits/s speed=0.985x    frame= 2962 fps= 25 q=28.0 size=   58880kB time=00:01:58.63 bitrate=4065.7kbits/s speed=0.985x    frame= 2975 fps= 25 q=28.0 size=   58880kB time=00:01:59.17 bitrate=4047.3kbits/s speed=0.985x    frame= 2988 fps= 25 q=29.0 size=   58880kB time=00:01:59.69 bitrate=4029.8kbits/s speed=0.985x    frame= 3001 fps= 25 q=28.0 size=   58880kB time=00:02:00.22 bitrate=4012.0kbits/s speed=0.985x    